<?xml version="1.0" encoding="utf-8"?>
<!-- Generator: Adobe Illustrator 24.0.1, SVG Export Plug-In . SVG Version: 6.00 Build 0)  -->
<svg version="1.1" xmlns="http://www.w3.org/2000/svg" xmlns:xlink="http://www.w3.org/1999/xlink" x="0px" y="0px"
	 viewBox="0 0 1950 400" style="enable-background:new 0 0 1950 400;" xml:space="preserve">
<style type="text/css">
	.st0{enable-background:new    ;}
	.st1{fill:#8257E6;}
	.st2{fill:#E83F5B;}
	.st3{fill:#04D361;}
	.st4{fill:#414147;}
	.st5{fill:#8156E4;}
</style>
<g id="Camada_1">
	<g class="st0">
		<path class="st1" d="M506.2,327.2c-13.3-6.5-24-15.7-32.2-27.6l21.5-25.2c14.3,20.5,32.3,30.7,54,30.7c14.6,0,25.6-4.4,33.1-13.3
			s11.3-22,11.3-39.2V107.2h-93.6V75h130.2v175.8c0,28.6-6.8,50.1-20.5,64.6c-13.7,14.4-33.9,21.6-60.5,21.6
			C534,337,519.5,333.7,506.2,327.2z"/>
		<path class="st1" d="M732.3,323.3c-15.5-8.6-27.7-20.5-36.4-35.7c-8.8-15.2-13.1-32.4-13.1-51.6s4.4-36.4,13.1-51.6
			c8.8-15.2,20.9-27,36.4-35.5s33.1-12.8,52.5-12.8c19.5,0,36.9,4.3,52.4,12.8c15.4,8.5,27.5,20.3,36.3,35.5s13.1,32.4,13.1,51.6
			s-4.4,36.4-13.1,51.6c-8.8,15.2-20.8,27.1-36.3,35.7c-15.4,8.6-32.9,13-52.4,13S747.8,331.9,732.3,323.3z M818.7,296.5
			c10-5.8,17.8-13.9,23.5-24.4s8.5-22.5,8.5-36.1s-2.8-25.6-8.5-36.1s-13.5-18.6-23.5-24.2c-10-5.7-21.3-8.5-33.9-8.5
			S761,170,751,175.7s-17.9,13.8-23.7,24.2c-5.8,10.5-8.7,22.5-8.7,36.1s2.9,25.6,8.7,36.1s13.7,18.6,23.7,24.4s21.3,8.7,33.9,8.7
			S808.7,302.3,818.7,296.5z"/>
		<path class="st1" d="M1090.8,148.7c15,8.4,26.8,20.1,35.3,35.2c8.5,15,12.8,32.4,12.8,52.2c0,19.7-4.3,37.2-12.8,52.4
			s-20.3,27-35.3,35.3c-15,8.4-32.1,12.6-51.1,12.6c-14.6,0-27.9-2.8-40-8.5s-22.1-13.9-30-24.8V334h-34V59.5h35.5v108
			c7.9-10.4,17.8-18.2,29.6-23.5s24.8-8,38.8-8C1058.7,136.1,1075.8,140.3,1090.8,148.7z M1070.7,296.5c10-5.8,17.9-13.9,23.7-24.4
			c5.8-10.5,8.7-22.5,8.7-36.1s-2.9-25.6-8.7-36.1c-5.8-10.5-13.7-18.6-23.7-24.2c-10-5.7-21.3-8.5-33.9-8.5
			c-12.3,0-23.6,2.8-33.7,8.5c-10.1,5.7-18,13.8-23.7,24.2c-5.7,10.5-8.5,22.5-8.5,36.1s2.8,25.6,8.5,36.1s13.6,18.6,23.7,24.4
			c10.1,5.8,21.3,8.7,33.7,8.7C1049.4,305.2,1060.7,302.3,1070.7,296.5z"/>
		<path class="st1" d="M1193.3,75h37v226.8h140.2V334h-177.2V75z"/>
		<path class="st1" d="M1408.5,93.5c-4.6-4.4-6.8-9.9-6.8-16.3s2.3-11.9,6.8-16.5c4.6-4.6,10.3-6.8,17.2-6.8
			c6.9,0,12.6,2.2,17.2,6.5s6.8,9.7,6.8,16.1c0,6.7-2.3,12.3-6.8,16.8c-4.6,4.6-10.3,6.8-17.2,6.8C1418.8,100.2,1413,98,1408.5,93.5
			z M1407.9,137.9h35.5V334h-35.5V137.9z"/>
		<path class="st1" d="M1521.1,329.8c-14.8-4.3-26.4-9.8-34.8-16.5l14.8-28.1c8.6,6.2,19.1,11.1,31.5,14.8
			c12.3,3.7,24.8,5.5,37.4,5.5c31.1,0,46.6-8.9,46.6-26.6c0-5.9-2.1-10.6-6.3-14.1c-4.2-3.5-9.4-6-15.7-7.6
			c-6.3-1.6-15.2-3.4-26.8-5.4c-15.8-2.5-28.7-5.3-38.7-8.5s-18.6-8.6-25.7-16.3c-7.2-7.6-10.7-18.4-10.7-32.2
			c0-17.8,7.4-32,22.2-42.7c14.8-10.7,34.7-16.1,59.6-16.1c13.1,0,26.1,1.6,39.2,4.8s23.8,7.5,32.2,12.9l-15.2,28.1
			c-16-10.4-34.9-15.5-56.6-15.5c-15,0-26.5,2.5-34.4,7.4s-11.8,11.5-11.8,19.6c0,6.4,2.2,11.5,6.7,15.2c4.4,3.7,9.9,6.4,16.5,8.1
			c6.5,1.7,15.7,3.7,27.6,5.9c15.8,2.7,28.5,5.6,38.3,8.7c9.7,3.1,18.1,8.3,25,15.7s10.4,17.8,10.4,31.1c0,17.8-7.6,31.9-22.8,42.4
			c-15.2,10.5-35.8,15.7-62,15.7C1551.3,336.3,1535.9,334.1,1521.1,329.8z"/>
		<path class="st1" d="M1806.8,322.6c-5.2,4.4-11.6,7.8-19.2,10.2c-7.6,2.3-15.5,3.5-23.7,3.5c-19.7,0-35-5.3-45.9-15.9
			s-16.3-25.8-16.3-45.5V167.2h-33.3V138h33.3V95h35.5v42.9h56.2v29.2h-56.2v106.2c0,10.6,2.6,18.7,8,24.4
			c5.3,5.7,12.9,8.5,22.8,8.5c10.9,0,20.1-3.1,27.8-9.3L1806.8,322.6z"/>
	</g>
	<g id="Camada_2_1_">
		<circle class="st2" cx="1426" cy="76" r="26"/>
		<circle class="st3" cx="1856" cy="315" r="26"/>
	</g>
	<g id="Camada_3">
		<path class="st3" d="M119,340H63c-6.6,0-12-5.4-12-12v-56c0-6.6,5.4-12,12-12h56c6.6,0,12,5.4,12,12v56
			C131,334.6,125.6,340,119,340z"/>
		<path class="st2" d="M119,155H63c-6.6,0-12-5.4-12-12V87c0-6.6,5.4-12,12-12h56c6.6,0,12,5.4,12,12v56
			C131,149.6,125.6,155,119,155z"/>
		<path class="st1" d="M119,247H63c-6.6,0-12-5.4-12-12v-56c0-6.6,5.4-12,12-12h56c6.6,0,12,5.4,12,12v56
			C131,241.6,125.6,247,119,247z"/>
		<path class="st4" d="M376,340H160c-6.6,0-12-5.4-12-12v-56c0-6.6,5.4-12,12-12h216c6.6,0,12,5.4,12,12v56
			C388,334.6,382.6,340,376,340z"/>
		<path class="st4" d="M376,247H160c-6.6,0-12-5.4-12-12v-56c0-6.6,5.4-12,12-12h216c6.6,0,12,5.4,12,12v56
			C388,241.6,382.6,247,376,247z"/>
		<path class="st4" d="M376,155H160c-6.6,0-12-5.4-12-12V87c0-6.6,5.4-12,12-12h216c6.6,0,12,5.4,12,12v56
			C388,149.6,382.6,155,376,155z"/>
	</g>
	<path class="st5" d="M153,337.7c0,0-2.6,0-4.9-6.2c-0.1-0.1-0.3-5.8-0.3-12.4l0.2-36.5c0-6.6,0.1-12.4,0.1-12.5
		c0.9-5.5,4.9-7.9,4.9-7.9"/>
	<path class="st5" d="M153,244.7c0,0-2.6,0-4.9-6.2c-0.1-0.1-0.3-5.8-0.3-12.4l0.2-36.5c0-6.6,0.1-12.4,0.1-12.5
		c0.9-5.5,4.9-7.9,4.9-7.9"/>
	<path class="st5" d="M153,152.7c0,0-2.6,0-4.9-6.2c-0.1-0.1-0.3-5.8-0.3-12.4l0.2-36.5c0-6.6,0.1-12.4,0.1-12.5
		c0.9-5.5,4.9-7.9,4.9-7.9"/>
</g>
<g id="Camada_2">
</g>
</svg>
