<?xml version="1.0" encoding="utf-8"?>
<!-- Generator: Adobe Illustrator 24.0.1, SVG Export Plug-In . SVG Version: 6.00 Build 0)  -->
<svg version="1.1" id="Camada_1" xmlns="http://www.w3.org/2000/svg" xmlns:xlink="http://www.w3.org/1999/xlink" x="0px" y="0px"
	 viewBox="0 0 24 24" style="enable-background:new 0 0 24 24;" xml:space="preserve">
<style type="text/css">
	.st0{fill:#8257E6;}
</style>
<path class="st0" d="M12,0C5.4,0,0,5.4,0,12s5.4,12,12,12s12-5.4,12-12S18.6,0,12,0z M13,16.9V18h-1v-1c-1,0-2.1-0.3-3-0.7l0.5-1.6
	c1,0.4,2.2,0.8,3.2,0.5c1.1-0.3,1.4-1.4,0.1-2C11.9,12.7,9,12.4,9,9.9c0-1.4,1-2.6,3-2.8V6h1v1c0.7,0,1.5,0.1,2.4,0.4l-0.4,1.6
	c-0.8-0.3-1.6-0.5-2.4-0.5c-1.5,0.1-1.6,1.4-0.6,1.9c1.7,0.8,3.9,1.4,3.9,3.5C16,15.8,14.7,16.7,13,16.9z"/>
</svg>
