<?xml version="1.0" encoding="utf-8"?>
<!-- Generator: Adobe Illustrator 24.0.1, SVG Export Plug-In . SVG Version: 6.00 Build 0)  -->
<svg version="1.1" id="Camada_1" xmlns="http://www.w3.org/2000/svg" xmlns:xlink="http://www.w3.org/1999/xlink" x="0px" y="0px"
	 viewBox="0 0 24 24" style="enable-background:new 0 0 24 24;" xml:space="preserve">
<style type="text/css">
	.st0{fill-rule:evenodd;clip-rule:evenodd;fill:#8257E6;}
</style>
<path class="st0" d="M19,24H5c-1.1,0-2-0.9-2-2V6h18v16C21,23.1,20.1,24,19,24 M10,10c0-0.6-0.4-1-1-1s-1,0.4-1,1v9c0,0.6,0.4,1,1,1
	s1-0.4,1-1V10z M16,10c0-0.6-0.4-1-1-1s-1,0.4-1,1v9c0,0.6,0.4,1,1,1s1-0.4,1-1V10z M22,5H2V3h6V1.5C8,0.7,8.7,0,9.5,0h5
	C15.3,0,16,0.7,16,1.5V3h6V5z M10,3h4V2h-4V3z"/>
</svg>
